<mxfile host="app.diagrams.net" agent="Mozilla/5.0 (Windows NT 10.0; Win64; x64) AppleWebKit/537.36 (KHTML, like Gecko) Chrome/133.0.0.0 Safari/537.36" version="26.0.16">
  <diagram name="PÃ¡gina-1" id="KKtY-4QSCPNu8tnF1wRO">
    <mxGraphModel dx="1434" dy="738" grid="1" gridSize="10" guides="1" tooltips="1" connect="1" arrows="1" fold="1" page="1" pageScale="1" pageWidth="827" pageHeight="1169" math="0" shadow="0">
      <root>
        <mxCell id="0" />
        <mxCell id="1" parent="0" />
        <mxCell id="5BBRXqGd__htqxoRcPK4-16" value="" style="group" parent="1" vertex="1" connectable="0">
          <mxGeometry x="230" y="40" width="120" height="370" as="geometry" />
        </mxCell>
        <mxCell id="5BBRXqGd__htqxoRcPK4-1" value="products" style="rounded=0;whiteSpace=wrap;html=1;" parent="5BBRXqGd__htqxoRcPK4-16" vertex="1">
          <mxGeometry width="120" height="60" as="geometry" />
        </mxCell>
        <mxCell id="5BBRXqGd__htqxoRcPK4-2" value="id" style="ellipse;whiteSpace=wrap;html=1;strokeColor=light-dark(#000000,#009900);" parent="5BBRXqGd__htqxoRcPK4-16" vertex="1">
          <mxGeometry y="80" width="120" height="40" as="geometry" />
        </mxCell>
        <mxCell id="5BBRXqGd__htqxoRcPK4-3" value="name" style="ellipse;whiteSpace=wrap;html=1;" parent="5BBRXqGd__htqxoRcPK4-16" vertex="1">
          <mxGeometry y="130" width="120" height="40" as="geometry" />
        </mxCell>
        <mxCell id="5BBRXqGd__htqxoRcPK4-4" value="description" style="ellipse;whiteSpace=wrap;html=1;" parent="5BBRXqGd__htqxoRcPK4-16" vertex="1">
          <mxGeometry y="180" width="120" height="40" as="geometry" />
        </mxCell>
        <mxCell id="5BBRXqGd__htqxoRcPK4-5" value="price" style="ellipse;whiteSpace=wrap;html=1;" parent="5BBRXqGd__htqxoRcPK4-16" vertex="1">
          <mxGeometry y="230" width="120" height="40" as="geometry" />
        </mxCell>
        <mxCell id="5BBRXqGd__htqxoRcPK4-6" value="stock" style="ellipse;whiteSpace=wrap;html=1;" parent="5BBRXqGd__htqxoRcPK4-16" vertex="1">
          <mxGeometry y="280" width="120" height="40" as="geometry" />
        </mxCell>
        <mxCell id="5BBRXqGd__htqxoRcPK4-7" value="category_id" style="ellipse;whiteSpace=wrap;html=1;strokeColor=light-dark(#000000,#CC0000);" parent="5BBRXqGd__htqxoRcPK4-16" vertex="1">
          <mxGeometry y="330" width="120" height="40" as="geometry" />
        </mxCell>
        <mxCell id="5BBRXqGd__htqxoRcPK4-17" value="" style="group" parent="1" vertex="1" connectable="0">
          <mxGeometry x="40" y="40" width="120" height="170" as="geometry" />
        </mxCell>
        <mxCell id="5BBRXqGd__htqxoRcPK4-8" value="categories" style="rounded=0;whiteSpace=wrap;html=1;" parent="5BBRXqGd__htqxoRcPK4-17" vertex="1">
          <mxGeometry width="120" height="60" as="geometry" />
        </mxCell>
        <mxCell id="5BBRXqGd__htqxoRcPK4-9" value="id" style="ellipse;whiteSpace=wrap;html=1;strokeColor=light-dark(#000000,#009900);" parent="5BBRXqGd__htqxoRcPK4-17" vertex="1">
          <mxGeometry y="80" width="120" height="40" as="geometry" />
        </mxCell>
        <mxCell id="5BBRXqGd__htqxoRcPK4-10" value="name" style="ellipse;whiteSpace=wrap;html=1;" parent="5BBRXqGd__htqxoRcPK4-17" vertex="1">
          <mxGeometry y="130" width="120" height="40" as="geometry" />
        </mxCell>
        <mxCell id="5BBRXqGd__htqxoRcPK4-19" style="edgeStyle=orthogonalEdgeStyle;rounded=0;orthogonalLoop=1;jettySize=auto;html=1;exitX=1;exitY=0.5;exitDx=0;exitDy=0;entryX=0;entryY=0.5;entryDx=0;entryDy=0;" parent="1" source="5BBRXqGd__htqxoRcPK4-9" target="5BBRXqGd__htqxoRcPK4-7" edge="1">
          <mxGeometry relative="1" as="geometry">
            <Array as="points">
              <mxPoint x="200" y="140" />
              <mxPoint x="200" y="390" />
            </Array>
          </mxGeometry>
        </mxCell>
        <mxCell id="5BBRXqGd__htqxoRcPK4-44" value="" style="group" parent="1" vertex="1" connectable="0">
          <mxGeometry x="440" y="40" width="120" height="320" as="geometry" />
        </mxCell>
        <mxCell id="5BBRXqGd__htqxoRcPK4-38" value="sales_detail" style="rounded=0;whiteSpace=wrap;html=1;" parent="5BBRXqGd__htqxoRcPK4-44" vertex="1">
          <mxGeometry width="120" height="60" as="geometry" />
        </mxCell>
        <mxCell id="5BBRXqGd__htqxoRcPK4-39" value="id" style="ellipse;whiteSpace=wrap;html=1;strokeColor=light-dark(#000000,#009900);" parent="5BBRXqGd__htqxoRcPK4-44" vertex="1">
          <mxGeometry y="80" width="120" height="40" as="geometry" />
        </mxCell>
        <mxCell id="5BBRXqGd__htqxoRcPK4-40" value="sale_id" style="ellipse;whiteSpace=wrap;html=1;strokeColor=light-dark(#000000,#CC0000);" parent="5BBRXqGd__htqxoRcPK4-44" vertex="1">
          <mxGeometry y="130" width="120" height="40" as="geometry" />
        </mxCell>
        <mxCell id="5BBRXqGd__htqxoRcPK4-41" value="product_id" style="ellipse;whiteSpace=wrap;html=1;strokeColor=light-dark(#000000,#CC0000);" parent="5BBRXqGd__htqxoRcPK4-44" vertex="1">
          <mxGeometry y="180" width="120" height="40" as="geometry" />
        </mxCell>
        <mxCell id="5BBRXqGd__htqxoRcPK4-42" value="quantity" style="ellipse;whiteSpace=wrap;html=1;" parent="5BBRXqGd__htqxoRcPK4-44" vertex="1">
          <mxGeometry y="230" width="120" height="40" as="geometry" />
        </mxCell>
        <mxCell id="5BBRXqGd__htqxoRcPK4-43" value="subtotal" style="ellipse;whiteSpace=wrap;html=1;" parent="5BBRXqGd__htqxoRcPK4-44" vertex="1">
          <mxGeometry y="280" width="120" height="40" as="geometry" />
        </mxCell>
        <mxCell id="5BBRXqGd__htqxoRcPK4-45" value="" style="group" parent="1" vertex="1" connectable="0">
          <mxGeometry x="440" y="370" width="120" height="270" as="geometry" />
        </mxCell>
        <mxCell id="5BBRXqGd__htqxoRcPK4-11" value="clients" style="rounded=0;whiteSpace=wrap;html=1;" parent="5BBRXqGd__htqxoRcPK4-45" vertex="1">
          <mxGeometry width="120" height="60" as="geometry" />
        </mxCell>
        <mxCell id="5BBRXqGd__htqxoRcPK4-12" value="id" style="ellipse;whiteSpace=wrap;html=1;strokeColor=light-dark(#000000,#009900);" parent="5BBRXqGd__htqxoRcPK4-45" vertex="1">
          <mxGeometry y="80" width="120" height="40" as="geometry" />
        </mxCell>
        <mxCell id="5BBRXqGd__htqxoRcPK4-13" value="name" style="ellipse;whiteSpace=wrap;html=1;" parent="5BBRXqGd__htqxoRcPK4-45" vertex="1">
          <mxGeometry y="130" width="120" height="40" as="geometry" />
        </mxCell>
        <mxCell id="5BBRXqGd__htqxoRcPK4-14" value="email" style="ellipse;whiteSpace=wrap;html=1;" parent="5BBRXqGd__htqxoRcPK4-45" vertex="1">
          <mxGeometry y="180" width="120" height="40" as="geometry" />
        </mxCell>
        <mxCell id="5BBRXqGd__htqxoRcPK4-15" value="phone" style="ellipse;whiteSpace=wrap;html=1;" parent="5BBRXqGd__htqxoRcPK4-45" vertex="1">
          <mxGeometry y="230" width="120" height="40" as="geometry" />
        </mxCell>
        <mxCell id="5BBRXqGd__htqxoRcPK4-46" value="" style="group" parent="1" vertex="1" connectable="0">
          <mxGeometry x="640" y="40" width="120" height="270" as="geometry" />
        </mxCell>
        <mxCell id="5BBRXqGd__htqxoRcPK4-21" value="sales" style="rounded=0;whiteSpace=wrap;html=1;" parent="5BBRXqGd__htqxoRcPK4-46" vertex="1">
          <mxGeometry width="120" height="60" as="geometry" />
        </mxCell>
        <mxCell id="5BBRXqGd__htqxoRcPK4-34" value="id" style="ellipse;whiteSpace=wrap;html=1;strokeColor=light-dark(#000000,#009900);" parent="5BBRXqGd__htqxoRcPK4-46" vertex="1">
          <mxGeometry y="80" width="120" height="40" as="geometry" />
        </mxCell>
        <mxCell id="5BBRXqGd__htqxoRcPK4-35" value="date" style="ellipse;whiteSpace=wrap;html=1;" parent="5BBRXqGd__htqxoRcPK4-46" vertex="1">
          <mxGeometry y="130" width="120" height="40" as="geometry" />
        </mxCell>
        <mxCell id="5BBRXqGd__htqxoRcPK4-36" value="total" style="ellipse;whiteSpace=wrap;html=1;" parent="5BBRXqGd__htqxoRcPK4-46" vertex="1">
          <mxGeometry y="180" width="120" height="40" as="geometry" />
        </mxCell>
        <mxCell id="5BBRXqGd__htqxoRcPK4-37" value="client_id" style="ellipse;whiteSpace=wrap;html=1;strokeColor=light-dark(#000000,#CC0000);" parent="5BBRXqGd__htqxoRcPK4-46" vertex="1">
          <mxGeometry y="230" width="120" height="40" as="geometry" />
        </mxCell>
        <mxCell id="5BBRXqGd__htqxoRcPK4-47" style="edgeStyle=orthogonalEdgeStyle;rounded=0;orthogonalLoop=1;jettySize=auto;html=1;exitX=1;exitY=0.5;exitDx=0;exitDy=0;entryX=0;entryY=0.5;entryDx=0;entryDy=0;" parent="1" source="5BBRXqGd__htqxoRcPK4-2" target="5BBRXqGd__htqxoRcPK4-41" edge="1">
          <mxGeometry relative="1" as="geometry">
            <Array as="points">
              <mxPoint x="400" y="140" />
              <mxPoint x="400" y="240" />
            </Array>
          </mxGeometry>
        </mxCell>
        <mxCell id="5BBRXqGd__htqxoRcPK4-48" style="edgeStyle=orthogonalEdgeStyle;rounded=0;orthogonalLoop=1;jettySize=auto;html=1;exitX=0;exitY=0.5;exitDx=0;exitDy=0;entryX=1;entryY=0.5;entryDx=0;entryDy=0;" parent="1" source="5BBRXqGd__htqxoRcPK4-34" target="5BBRXqGd__htqxoRcPK4-40" edge="1">
          <mxGeometry relative="1" as="geometry" />
        </mxCell>
        <mxCell id="5BBRXqGd__htqxoRcPK4-49" style="edgeStyle=orthogonalEdgeStyle;rounded=0;orthogonalLoop=1;jettySize=auto;html=1;exitX=1;exitY=0.5;exitDx=0;exitDy=0;entryX=0.5;entryY=1;entryDx=0;entryDy=0;" parent="1" source="5BBRXqGd__htqxoRcPK4-12" target="5BBRXqGd__htqxoRcPK4-37" edge="1">
          <mxGeometry relative="1" as="geometry" />
        </mxCell>
      </root>
    </mxGraphModel>
  </diagram>
</mxfile>
